<svg width="20" height="20" viewBox="0 0 20 20" fill="none" xmlns="http://www.w3.org/2000/svg">
<path d="M6.75 10.5H2.25C1.285 10.5 0.5 9.71497 0.5 8.74997V4.24997C0.5 3.28497 1.285 2.49997 2.25 2.49997H6.75C7.715 2.49997 8.5 3.28497 8.5 4.24997V8.74997C8.5 9.71497 7.715 10.5 6.75 10.5ZM2.25 3.99997C2.1125 3.99997 2 4.11247 2 4.24997V8.74997C2 8.88747 2.1125 8.99997 2.25 8.99997H6.75C6.8875 8.99997 7 8.88747 7 8.74997V4.24997C7 4.11247 6.8875 3.99997 6.75 3.99997H2.25ZM6.75 19.5H2.25C1.285 19.5 0.5 18.715 0.5 17.75V13.25C0.5 12.285 1.285 11.5 2.25 11.5H6.75C7.715 11.5 8.5 12.285 8.5 13.25V17.75C8.5 18.715 7.715 19.5 6.75 19.5ZM2.25 13C2.1125 13 2 13.1125 2 13.25V17.75C2 17.8875 2.1125 18 2.25 18H6.75C6.8875 18 7 17.8875 7 17.75V13.25C7 13.1125 6.8875 13 6.75 13H2.25ZM15.75 19.5H11.25C10.285 19.5 9.5 18.715 9.5 17.75V13.25C9.5 12.285 10.285 11.5 11.25 11.5H15.75C16.715 11.5 17.5 12.285 17.5 13.25V17.75C17.5 18.715 16.715 19.5 15.75 19.5ZM11.25 13C11.1125 13 11 13.1125 11 13.25V17.75C11 17.8875 11.1125 18 11.25 18H15.75C15.8875 18 16 17.8875 16 17.75V13.25C16 13.1125 15.8875 13 15.75 13H11.25ZM14.5 10.431C14.052 10.431 13.604 10.2605 13.2625 9.91947L10.0805 6.73747C9.3985 6.05547 9.3985 4.94497 10.0805 4.26297L13.2625 1.08097C13.945 0.398467 15.0545 0.398467 15.737 1.08097L18.919 4.26297C19.601 4.94497 19.601 6.05547 18.919 6.73747L15.737 9.91947C15.396 10.2605 14.948 10.431 14.5 10.431ZM14.5 2.06797C14.436 2.06797 14.372 2.09247 14.323 2.14097L11.141 5.32297C11.044 5.42047 11.044 5.57897 11.141 5.67647L14.323 8.85847C14.4205 8.95597 14.579 8.95597 14.6765 8.85847L17.8585 5.67647C17.9555 5.57897 17.9555 5.42047 17.8585 5.32297L14.6765 2.14097C14.628 2.09247 14.564 2.06797 14.5 2.06797Z" fill="#9CA3AF"/>
</svg>
