<svg width="4" height="8" viewBox="0 0 4 8" fill="none" xmlns="http://www.w3.org/2000/svg">
<path d="M3.75362 4.16667C3.75267 4.10161 3.72639 4.03949 3.68038 3.99349L0.430378 0.743488C0.407341 0.719495 0.379749 0.70034 0.349217 0.687144C0.318685 0.673948 0.285827 0.666977 0.252567 0.666639C0.219307 0.666301 0.186314 0.672602 0.15552 0.685175C0.124726 0.697747 0.0967505 0.716337 0.073231 0.739857C0.0497115 0.763376 0.0311208 0.791352 0.0185485 0.822146C0.00597626 0.85294 -0.000325236 0.885933 1.2923e-05 0.919193C0.000351082 0.952453 0.00732239 0.985311 0.0205182 1.01584C0.033714 1.04637 0.0528691 1.07397 0.0768619 1.097L3.1501 4.17025L0.0768616 7.24349C0.0528689 7.26653 0.0337136 7.29412 0.0205179 7.32465C0.00732219 7.35518 0.000351399 7.38804 1.32746e-05 7.4213C-0.00032485 7.45456 0.00597661 7.48755 0.0185489 7.51835C0.0311212 7.54914 0.0497112 7.57712 0.0732307 7.60064C0.0967501 7.62416 0.124726 7.64275 0.15552 7.65532C0.186314 7.66789 0.219307 7.67419 0.252567 7.67385C0.285826 7.67352 0.318685 7.66654 0.349217 7.65335C0.379749 7.64015 0.407341 7.621 0.430377 7.59701L3.68038 4.347C3.70402 4.32337 3.72269 4.29523 3.73527 4.26426C3.74785 4.23328 3.75409 4.2001 3.75362 4.16667Z" fill="#9CA3AF"/>
</svg>
