<svg width="16" height="21" viewBox="0 0 16 21" fill="none" xmlns="http://www.w3.org/2000/svg">
<path d="M2.25 0.5C1.0095 0.5 0 1.5095 0 2.75V18.25C0 19.4905 1.0095 20.5 2.25 20.5H13.75C14.9905 20.5 16 19.4905 16 18.25V8.5H10.25C9.0095 8.5 8 7.4905 8 6.25V0.5H2.25ZM9.5 0.939453V6.25C9.5 6.6635 9.8365 7 10.25 7H15.5605L9.5 0.939453ZM4.75 11H11.25C11.664 11 12 11.336 12 11.75C12 12.164 11.664 12.5 11.25 12.5H4.75C4.336 12.5 4 12.164 4 11.75C4 11.336 4.336 11 4.75 11ZM4.74512 14.5H9.24316C9.65716 14.5 9.99316 14.8355 9.99316 15.25C9.99366 15.6295 9.7117 15.9437 9.3457 15.9932L9.24414 16H4.74609C4.33209 16 3.99609 15.664 3.99609 15.25C3.99609 14.8705 4.27755 14.5563 4.64355 14.5068L4.74512 14.5Z" fill="#9CA3AF"/>
</svg>
