<svg width="18" height="18" viewBox="0 0 18 18" fill="none" xmlns="http://www.w3.org/2000/svg">
<path d="M2.75 0C1.24011 0 0 1.24011 0 2.75V15.25C0 16.7599 1.24011 18 2.75 18H15.25C16.7599 18 18 16.7599 18 15.25V2.75C18 1.24011 16.7599 0 15.25 0H2.75ZM2.75 1.5H8.25V8.25H1.5V2.75C1.5 2.05089 2.05089 1.5 2.75 1.5ZM9.75 1.5H15.25C15.9491 1.5 16.5 2.05089 16.5 2.75V8.25H9.75V1.5ZM1.5 9.75H8.25V16.5H2.75C2.05089 16.5 1.5 15.9491 1.5 15.25V9.75ZM9.75 9.75H16.5V15.25C16.5 15.9491 15.9491 16.5 15.25 16.5H9.75V9.75Z" fill="#9CA3AF"/>
</svg>
