<svg width="20" height="21" viewBox="0 0 20 21" fill="none" xmlns="http://www.w3.org/2000/svg">
<path d="M11.75 0.5C10.8775 0.5 10.1215 1.01305 9.74907 1.74707C9.44615 1.59411 9.10974 1.5 8.75005 1.5C7.5163 1.5 6.50005 2.51625 6.50005 3.75V12.9912C5.76621 12.5731 4.85429 12.0453 4.20708 11.7637C3.84252 11.605 3.43783 11.5 3.00786 11.5C1.98202 11.5 1.24964 12.0318 0.903369 12.5518C0.557094 13.0717 0.503955 13.6055 0.503955 13.6055C0.491405 13.7236 0.507082 13.843 0.549697 13.9538C0.592311 14.0647 0.660644 14.1639 0.749072 14.2432C0.749072 14.2432 4.92027 17.9986 6.09575 19.2422C7.0831 20.2864 8.43236 21.0299 9.96099 21H14.2178C17.3882 21.0287 19.9714 18.4453 20.0001 15.2822C20.0001 15.2799 20.0001 15.2777 20.0001 15.2754V5.75C20.0001 4.51625 18.9838 3.5 17.7501 3.5C17.4824 3.5 17.2283 3.5551 16.9893 3.64258C16.9313 2.45879 15.9471 1.5 14.7501 1.5C14.3852 1.5 14.0533 1.60948 13.7471 1.7666C13.377 1.02598 12.6274 0.5 11.75 0.5ZM11.75 2C12.1733 2 12.5001 2.32675 12.5001 2.75V3.75V10.25C12.4986 10.3494 12.517 10.4481 12.5541 10.5403C12.5911 10.6325 12.6461 10.7164 12.7159 10.7872C12.7857 10.858 12.8689 10.9142 12.9606 10.9526C13.0523 10.9909 13.1507 11.0107 13.2501 11.0107C13.3494 11.0107 13.4478 10.9909 13.5395 10.9526C13.6312 10.9142 13.7144 10.858 13.7842 10.7872C13.854 10.7164 13.909 10.6325 13.946 10.5403C13.9831 10.4481 14.0015 10.3494 14.0001 10.25V3.75C14.0001 3.32675 14.3268 3 14.7501 3C15.1733 3 15.5001 3.32675 15.5001 3.75V5.75V10.75C15.4986 10.8494 15.517 10.9481 15.5541 11.0403C15.5911 11.1325 15.6461 11.2164 15.7159 11.2872C15.7857 11.358 15.8689 11.4142 15.9606 11.4526C16.0523 11.4909 16.1507 11.5107 16.2501 11.5107C16.3494 11.5107 16.4478 11.4909 16.5395 11.4526C16.6312 11.4142 16.7144 11.358 16.7842 11.2872C16.854 11.2164 16.909 11.1325 16.946 11.0403C16.9831 10.9481 17.0015 10.8494 17.0001 10.75V5.75C17.0001 5.32675 17.3268 5 17.7501 5C18.1733 5 18.5001 5.32675 18.5001 5.75V15.2686C18.4787 17.6285 16.5841 19.5213 14.2315 19.5C14.2292 19.5 14.2269 19.5 14.2247 19.5H9.94634C9.94146 19.5 9.93657 19.5 9.93169 19.5C8.90657 19.5201 7.95313 19.0224 7.18657 18.2119H7.1856C5.93016 16.8839 2.60014 13.9029 2.11626 13.4688C2.13595 13.4276 2.12177 13.4273 2.15142 13.3828C2.28302 13.1852 2.4292 13 3.00786 13C3.1919 13 3.39401 13.0463 3.60845 13.1396C4.17217 13.3849 5.37272 14.0637 6.13286 14.4961C6.93552 14.9541 8.00005 14.3305 8.00005 13.4092V3.75C8.00005 3.32675 8.3268 3 8.75005 3C9.1733 3 9.50005 3.32675 9.50005 3.75V10.25C9.49864 10.3494 9.51701 10.4481 9.55407 10.5403C9.59113 10.6325 9.64615 10.7164 9.71593 10.7872C9.78571 10.858 9.86887 10.9142 9.96056 10.9526C10.0523 10.9909 10.1507 11.0107 10.25 11.0107C10.3494 11.0107 10.4478 10.9909 10.5395 10.9526C10.6312 10.9142 10.7144 10.858 10.7842 10.7872C10.854 10.7164 10.909 10.6325 10.946 10.5403C10.9831 10.4481 11.0015 10.3494 11 10.25V3.75V2.75C11 2.32675 11.3268 2 11.75 2Z" fill="#9CA3AF"/>
</svg>
