<svg width="7" height="12" viewBox="0 0 7 12" fill="none" xmlns="http://www.w3.org/2000/svg">
<path d="M5.61773 0.746615C5.52034 0.749454 5.42787 0.790081 5.35991 0.859897L0.484913 5.7349C0.414614 5.80522 0.375122 5.90059 0.375122 6.00003C0.375122 6.09947 0.414614 6.19484 0.484913 6.26517L5.35991 11.1402C5.39447 11.1762 5.43586 11.2049 5.48165 11.2247C5.52745 11.2445 5.57674 11.2549 5.62663 11.2554C5.67652 11.2559 5.72601 11.2465 5.7722 11.2276C5.81839 11.2088 5.86035 11.1809 5.89563 11.1456C5.93091 11.1103 5.9588 11.0684 5.97766 11.0222C5.99651 10.976 6.00597 10.9265 6.00546 10.8766C6.00495 10.8267 5.9945 10.7774 5.9747 10.7316C5.95491 10.6858 5.92618 10.6444 5.89019 10.6099L1.28032 6.00003L5.89019 1.39017C5.94429 1.33748 5.98122 1.26969 5.99615 1.19566C6.01109 1.12163 6.00333 1.04482 5.97388 0.975282C5.94444 0.90574 5.89469 0.846706 5.83114 0.805907C5.7676 0.765107 5.69321 0.744441 5.61773 0.746615Z" fill="#374151"/>
</svg>
