<svg width="18" height="19" viewBox="0 0 18 19" fill="none" xmlns="http://www.w3.org/2000/svg">
<path d="M0 4.5C0 2.29086 1.79086 0.5 4 0.5H5.33333V5.83333H0V4.5Z" fill="white"/>
<path d="M0 6.83333H5.33333V12.1667H0V6.83333Z" fill="white"/>
<path d="M0 13.1667H5.33333V18.5H4C1.79086 18.5 0 16.7091 0 14.5V13.1667Z" fill="white"/>
<path d="M6.33333 0.5H11.6667V5.83333H6.33333V0.5Z" fill="white"/>
<path d="M6.33333 6.83333H11.6667V12.1667H6.33333V6.83333Z" fill="white"/>
<path d="M6.33333 13.1667H11.6667V18.5H6.33333V13.1667Z" fill="white"/>
<path d="M12.6667 0.5H14C16.2091 0.5 18 2.29086 18 4.5V5.83333H12.6667V0.5Z" fill="white"/>
<path d="M12.6667 6.83333H18V12.1667H12.6667V6.83333Z" fill="white"/>
<path d="M12.6667 13.1667H18V14.5C18 16.7091 16.2091 18.5 14 18.5H12.6667V13.1667Z" fill="white"/>
</svg>
