<svg width="18" height="19" viewBox="0 0 18 19" fill="none" xmlns="http://www.w3.org/2000/svg">
<path d="M2.74996 0.499953C1.24007 0.499953 -4.48102e-05 1.74007 -4.48102e-05 3.24995V6.24995C-0.00145035 6.34934 0.0169105 6.44801 0.0539708 6.54023C0.0910311 6.63246 0.146052 6.7164 0.215835 6.78718C0.285619 6.85796 0.368773 6.91416 0.460466 6.95252C0.552159 6.99088 0.650561 7.01063 0.749955 7.01063C0.849349 7.01063 0.947752 6.99088 1.03944 6.95252C1.13114 6.91416 1.21429 6.85796 1.28408 6.78718C1.35386 6.7164 1.40888 6.63246 1.44594 6.54023C1.483 6.44801 1.50136 6.34934 1.49996 6.24995V3.24995C1.49996 2.55084 2.05084 1.99995 2.74996 1.99995H5.74996C5.84934 2.00136 5.94801 1.983 6.04024 1.94594C6.13246 1.90888 6.21641 1.85386 6.28718 1.78407C6.35796 1.71429 6.41416 1.63113 6.45252 1.53944C6.49088 1.44775 6.51064 1.34935 6.51064 1.24995C6.51064 1.15056 6.49088 1.05216 6.45252 0.960463C6.41416 0.868771 6.35796 0.785616 6.28718 0.715833C6.21641 0.646049 6.13246 0.591029 6.04024 0.553969C5.94801 0.516908 5.84934 0.498547 5.74996 0.499953H2.74996ZM12.25 0.499953C12.1506 0.498547 12.0519 0.516908 11.9597 0.553969C11.8674 0.591029 11.7835 0.646049 11.7127 0.715833C11.642 0.785616 11.5858 0.868771 11.5474 0.960463C11.509 1.05216 11.4893 1.15056 11.4893 1.24995C11.4893 1.34935 11.509 1.44775 11.5474 1.53944C11.5858 1.63113 11.642 1.71429 11.7127 1.78407C11.7835 1.85386 11.8674 1.90888 11.9597 1.94594C12.0519 1.983 12.1506 2.00136 12.25 1.99995H15.25C15.9491 1.99995 16.5 2.55084 16.5 3.24995V6.24995C16.4986 6.34934 16.5169 6.44801 16.554 6.54023C16.591 6.63246 16.6461 6.7164 16.7158 6.78718C16.7856 6.85796 16.8688 6.91416 16.9605 6.95252C17.0522 6.99088 17.1506 7.01063 17.25 7.01063C17.3494 7.01063 17.4478 6.99088 17.5394 6.95252C17.6311 6.91416 17.7143 6.85796 17.7841 6.78718C17.8539 6.7164 17.9089 6.63246 17.9459 6.54023C17.983 6.44801 18.0014 6.34934 18 6.24995V3.24995C18 1.74007 16.7598 0.499953 15.25 0.499953H12.25ZM0.738236 11.9892C0.539495 11.9923 0.350111 12.0742 0.211683 12.2168C0.0732558 12.3595 -0.00289577 12.5512 -4.48102e-05 12.75V15.75C-4.48102e-05 17.2598 1.24007 18.5 2.74996 18.5H5.74996C5.84934 18.5014 5.94801 18.483 6.04024 18.4459C6.13246 18.4089 6.21641 18.3539 6.28718 18.2841C6.35796 18.2143 6.41416 18.1311 6.45252 18.0394C6.49088 17.9477 6.51064 17.8493 6.51064 17.75C6.51064 17.6506 6.49088 17.5522 6.45252 17.4605C6.41416 17.3688 6.35796 17.2856 6.28718 17.2158C6.21641 17.146 6.13246 17.091 6.04024 17.054C5.94801 17.0169 5.84934 16.9985 5.74996 17H2.74996C2.05084 17 1.49996 16.4491 1.49996 15.75V12.75C1.5014 12.6496 1.48267 12.5499 1.44489 12.4569C1.4071 12.3639 1.35103 12.2794 1.28 12.2085C1.20897 12.1375 1.12441 12.0816 1.03135 12.0439C0.938292 12.0062 0.838617 11.9876 0.738236 11.9892ZM17.2382 11.9892C17.0395 11.9923 16.8501 12.0742 16.7117 12.2168C16.5733 12.3595 16.4971 12.5512 16.5 12.75V15.75C16.5 16.4491 15.9491 17 15.25 17H12.25C12.1506 16.9985 12.0519 17.0169 11.9597 17.054C11.8674 17.091 11.7835 17.146 11.7127 17.2158C11.642 17.2856 11.5858 17.3688 11.5474 17.4605C11.509 17.5522 11.4893 17.6506 11.4893 17.75C11.4893 17.8493 11.509 17.9477 11.5474 18.0394C11.5858 18.1311 11.642 18.2143 11.7127 18.2841C11.7835 18.3539 11.8674 18.4089 11.9597 18.4459C12.0519 18.483 12.1506 18.5014 12.25 18.5H15.25C16.7598 18.5 18 17.2598 18 15.75V12.75C18.0014 12.6496 17.9827 12.5499 17.9449 12.4569C17.9071 12.3639 17.851 12.2794 17.78 12.2085C17.709 12.1375 17.6244 12.0816 17.5314 12.0439C17.4383 12.0062 17.3386 11.9876 17.2382 11.9892Z" fill="#9CA3AF"/>
</svg>
