<svg width="16" height="16" viewBox="0 0 16 16" fill="none" xmlns="http://www.w3.org/2000/svg">
<g clip-path="url(#clip0_3341_278)">
<path d="M7.99999 0.666626C6.34908 0.666626 4.99999 2.01572 4.99999 3.66663V8.66663C4.99999 10.3175 6.34908 11.6666 7.99999 11.6666C9.6509 11.6666 11 10.3175 11 8.66663V3.66663C11 2.01572 9.6509 0.666626 7.99999 0.666626ZM3.49218 6.9928C3.35968 6.99487 3.23343 7.04944 3.14114 7.14454C3.04886 7.23963 2.99809 7.36746 2.99999 7.49996V8.66663C2.99999 11.2535 4.978 13.3893 7.49999 13.6412V15.1666C7.49905 15.2329 7.51129 15.2987 7.536 15.3601C7.56071 15.4216 7.59739 15.4776 7.64391 15.5248C7.69043 15.572 7.74587 15.6094 7.807 15.635C7.86813 15.6606 7.93373 15.6737 7.99999 15.6737C8.06625 15.6737 8.13185 15.6606 8.19298 15.635C8.25411 15.6094 8.30955 15.572 8.35607 15.5248C8.40259 15.4776 8.43927 15.4216 8.46398 15.3601C8.48869 15.2987 8.50093 15.2329 8.49999 15.1666V13.6412C11.022 13.3893 13 11.2535 13 8.66663V7.49996C13.0009 7.4337 12.9887 7.36792 12.964 7.30644C12.9393 7.24495 12.9026 7.18899 12.8561 7.14181C12.8095 7.09462 12.7541 7.05715 12.693 7.03158C12.6319 7.00601 12.5663 6.99284 12.5 6.99284C12.4337 6.99284 12.3681 7.00601 12.307 7.03158C12.2459 7.05715 12.1904 7.09462 12.1439 7.14181C12.0974 7.18899 12.0607 7.24495 12.036 7.30644C12.0113 7.36792 11.9991 7.4337 12 7.49996V8.66663C12 10.8617 10.2465 12.6315 8.05924 12.6634C8.037 12.6606 8.01459 12.6593 7.99218 12.6595C7.97389 12.6598 7.95563 12.6611 7.93749 12.6634C5.7517 12.6298 3.99999 10.8607 3.99999 8.66663V7.49996C4.00095 7.43304 3.98847 7.3666 3.96328 7.30459C3.93809 7.24259 3.90071 7.18627 3.85335 7.13897C3.806 7.09168 3.74963 7.05437 3.68759 7.02926C3.62555 7.00415 3.5591 6.99175 3.49218 6.9928Z" fill="#9CA3AF"/>
<g clip-path="url(#clip1_3341_278)">
<mask id="mask0_3341_278" style="mask-type:alpha" maskUnits="userSpaceOnUse" x="0" y="9" width="24" height="15">
<rect y="9" width="24" height="15" fill="#C4C4C4"/>
</mask>
<g mask="url(#mask0_3341_278)">
<path d="M7.99999 0.666626C6.34908 0.666626 4.99999 2.01572 4.99999 3.66663V8.66663C4.99999 10.3175 6.34908 11.6666 7.99999 11.6666C9.6509 11.6666 11 10.3175 11 8.66663V3.66663C11 2.01572 9.6509 0.666626 7.99999 0.666626ZM3.49218 6.9928C3.35968 6.99487 3.23343 7.04944 3.14114 7.14454C3.04886 7.23963 2.99809 7.36746 2.99999 7.49996V8.66663C2.99999 11.2535 4.978 13.3893 7.49999 13.6412V15.1666C7.49905 15.2329 7.51129 15.2987 7.536 15.3601C7.56071 15.4216 7.59739 15.4776 7.64391 15.5248C7.69043 15.572 7.74587 15.6094 7.807 15.635C7.86812 15.6606 7.93373 15.6737 7.99999 15.6737C8.06625 15.6737 8.13185 15.6606 8.19298 15.635C8.25411 15.6094 8.30955 15.572 8.35607 15.5248C8.40259 15.4776 8.43927 15.4216 8.46398 15.3601C8.48869 15.2987 8.50093 15.2329 8.49999 15.1666V13.6412C11.022 13.3893 13 11.2535 13 8.66663V7.49996C13.0009 7.4337 12.9887 7.36792 12.964 7.30644C12.9393 7.24495 12.9026 7.18899 12.8561 7.14181C12.8095 7.09462 12.7541 7.05715 12.693 7.03158C12.6319 7.00601 12.5663 6.99284 12.5 6.99284C12.4337 6.99284 12.3681 7.00601 12.307 7.03158C12.2459 7.05715 12.1904 7.09462 12.1439 7.14181C12.0974 7.18899 12.0607 7.24495 12.036 7.30644C12.0113 7.36792 11.9991 7.4337 12 7.49996V8.66663C12 10.8617 10.2465 12.6315 8.05923 12.6634C8.03699 12.6606 8.01459 12.6593 7.99218 12.6595C7.97389 12.6598 7.95563 12.6611 7.93749 12.6634C5.7517 12.6298 3.99999 10.8607 3.99999 8.66663V7.49996C4.00095 7.43304 3.98847 7.3666 3.96328 7.30459C3.93809 7.24259 3.90071 7.18627 3.85335 7.13897C3.806 7.09168 3.74963 7.05437 3.68759 7.02926C3.62555 7.00415 3.5591 6.99175 3.49218 6.9928Z" fill="#2D8CFF"/>
</g>
</g>
</g>
<defs>
<clipPath id="clip0_3341_278">
<rect width="16" height="16" fill="white"/>
</clipPath>
<clipPath id="clip1_3341_278">
<rect width="16" height="16" fill="white"/>
</clipPath>
</defs>
</svg>
