<svg width="14" height="16" viewBox="0 0 14 16" fill="none" xmlns="http://www.w3.org/2000/svg">
<path d="M7.00002 0.666626C5.34668 0.666626 4.00002 2.01329 4.00002 3.66663V8.66663C4.00002 8.73663 4.00319 8.80634 4.00653 8.87301L4.50002 8.38017V8.37952L4.91668 7.9635L9.00002 3.88017V3.87952L9.48309 3.39644L9.91668 2.9635C9.60002 1.64683 8.41002 0.666626 7.00002 0.666626ZM13.1569 1.32874C13.0271 1.33252 12.9038 1.38669 12.8132 1.47978L0.479835 13.8131C0.431849 13.8592 0.393538 13.9144 0.367147 13.9754C0.340755 14.0365 0.326813 14.1022 0.326137 14.1687C0.32546 14.2353 0.338064 14.3012 0.363208 14.3628C0.388353 14.4244 0.425533 14.4804 0.472572 14.5274C0.519611 14.5744 0.575563 14.6116 0.637151 14.6368C0.698739 14.6619 0.764725 14.6745 0.831245 14.6738C0.897765 14.6732 0.963481 14.6592 1.02454 14.6328C1.08561 14.6064 1.14079 14.5681 1.18687 14.5201L3.48895 12.2181C4.28028 13.0022 5.33189 13.5211 6.50002 13.638V15.1666C6.49908 15.2329 6.51132 15.2987 6.53603 15.3601C6.56074 15.4216 6.59742 15.4776 6.64394 15.5248C6.69046 15.572 6.7459 15.6094 6.80702 15.635C6.86815 15.6606 6.93376 15.6737 7.00002 15.6737C7.06628 15.6737 7.13188 15.6606 7.19301 15.635C7.25414 15.6094 7.30958 15.572 7.3561 15.5248C7.40262 15.4776 7.4393 15.4216 7.46401 15.3601C7.48871 15.2987 7.50096 15.2329 7.50002 15.1666V13.6412C10.0228 13.3894 12 11.2545 12 8.66663V7.49996C12 7.22329 11.7767 6.99996 11.5 6.99996C11.2234 6.99996 11 7.22329 11 7.49996V8.66663C11 10.8533 9.23841 12.6313 7.05926 12.6634C7.05363 12.6626 7.04799 12.662 7.04234 12.6614C7.02567 12.6599 7.00894 12.6593 6.99221 12.6595C6.97545 12.6597 6.95872 12.6608 6.94208 12.6627C6.94121 12.6629 6.94034 12.6632 6.93947 12.6634C6.93925 12.6634 6.93904 12.6634 6.93882 12.6634C5.87001 12.6471 4.90258 12.2112 4.19533 11.5117L4.90431 10.8027C5.44594 11.3342 6.18329 11.6666 7.00002 11.6666C8.65335 11.6666 10 10.32 10 8.66663V5.70699L13.5202 2.18681C13.5923 2.11656 13.6416 2.02616 13.6615 1.92746C13.6814 1.82876 13.6711 1.72635 13.6318 1.63362C13.5925 1.5409 13.5262 1.46219 13.4415 1.40779C13.3567 1.35339 13.2576 1.32584 13.1569 1.32874V1.32874ZM2.50002 6.99996C2.22335 6.99996 2.00002 7.22329 2.00002 7.49996V8.66663C2.00002 9.32329 2.12679 9.95006 2.35679 10.5234L3.1465 9.73303C3.04983 9.39303 3.00002 9.03663 3.00002 8.66663V7.49996C3.00002 7.22329 2.77668 6.99996 2.50002 6.99996Z" fill="#374151"/>
</svg>
