<svg width="6" height="11" viewBox="0 0 6 11" fill="none" xmlns="http://www.w3.org/2000/svg">
<path d="M5.63043 5.25006C5.629 5.15247 5.58959 5.05929 5.52057 4.99029L0.645566 0.115293C0.611012 0.0793036 0.569623 0.0505707 0.523825 0.030777C0.478027 0.0109833 0.42874 0.000526633 0.37885 1.93849e-05C0.328961 -0.000487863 0.279472 0.00896451 0.233281 0.0278229C0.18709 0.0466813 0.145126 0.0745667 0.109846 0.109846C0.0745672 0.145125 0.0466812 0.187089 0.0278228 0.23328C0.00896439 0.279471 -0.000487855 0.328961 1.93845e-05 0.378851C0.000526624 0.42874 0.0109836 0.478027 0.0307773 0.523825C0.050571 0.569623 0.0793036 0.611012 0.115293 0.645566L4.72516 5.25543L0.115292 9.86529C0.0793033 9.89985 0.0505705 9.94124 0.0307769 9.98704C0.0109833 10.0328 0.000527099 10.0821 1.99119e-05 10.132C-0.000487275 10.1819 0.00896491 10.2314 0.0278233 10.2776C0.0466817 10.3238 0.0745668 10.3657 0.109846 10.401C0.145125 10.4363 0.187089 10.4642 0.23328 10.483C0.279471 10.5019 0.32896 10.5113 0.37885 10.5108C0.42874 10.5103 0.478027 10.4999 0.523825 10.4801C0.569623 10.4603 0.611011 10.4316 0.645566 10.3956L5.52057 5.52057C5.55603 5.48511 5.58403 5.44291 5.6029 5.39644C5.62177 5.34998 5.63113 5.3002 5.63043 5.25006Z" fill="#9CA3AF"/>
</svg>
