<svg width="20" height="20" viewBox="0 0 20 20" fill="none" xmlns="http://www.w3.org/2000/svg">
<path d="M10 0C4.48603 0 0 4.48604 0 10C0 15.514 4.48603 20 10 20C15.514 20 20 15.514 20 10C20 4.48604 15.514 0 10 0ZM10 1.5C14.7033 1.5 18.5 5.2967 18.5 10C18.5 14.7033 14.7033 18.5 10 18.5C5.29669 18.5 1.5 14.7033 1.5 10C1.5 5.2967 5.29669 1.5 10 1.5ZM5.75 6C5.65062 5.99859 5.55194 6.01696 5.45972 6.05402C5.36749 6.09108 5.28355 6.1461 5.21277 6.21588C5.142 6.28566 5.08579 6.36882 5.04743 6.46051C5.00907 6.5522 4.98932 6.65061 4.98932 6.75C4.98932 6.84939 5.00907 6.9478 5.04743 7.03949C5.08579 7.13118 5.142 7.21434 5.21277 7.28412C5.28355 7.3539 5.36749 7.40892 5.45972 7.44598C5.55194 7.48304 5.65062 7.50141 5.75 7.5H7.75C7.84938 7.50141 7.94806 7.48304 8.04028 7.44598C8.13251 7.40892 8.21645 7.3539 8.28723 7.28412C8.358 7.21434 8.41421 7.13118 8.45257 7.03949C8.49093 6.9478 8.51068 6.84939 8.51068 6.75C8.51068 6.65061 8.49093 6.5522 8.45257 6.46051C8.41421 6.36882 8.358 6.28566 8.28723 6.21588C8.21645 6.1461 8.13251 6.09108 8.04028 6.05402C7.94806 6.01696 7.84938 5.99859 7.75 6H5.75ZM12.25 6C12.1506 5.99859 12.0519 6.01696 11.9597 6.05402C11.8675 6.09108 11.7836 6.1461 11.7128 6.21588C11.642 6.28566 11.5858 6.36882 11.5474 6.46051C11.5091 6.5522 11.4893 6.65061 11.4893 6.75C11.4893 6.84939 11.5091 6.9478 11.5474 7.03949C11.5858 7.13118 11.642 7.21434 11.7128 7.28412C11.7836 7.3539 11.8675 7.40892 11.9597 7.44598C12.0519 7.48304 12.1506 7.50141 12.25 7.5H14.25C14.3494 7.50141 14.4481 7.48304 14.5403 7.44598C14.6325 7.40892 14.7164 7.3539 14.7872 7.28412C14.858 7.21434 14.9142 7.13118 14.9526 7.03949C14.9909 6.9478 15.0107 6.84939 15.0107 6.75C15.0107 6.65061 14.9909 6.5522 14.9526 6.46051C14.9142 6.36882 14.858 6.28566 14.7872 6.21588C14.7164 6.1461 14.6325 6.09108 14.5403 6.05402C14.4481 6.01696 14.3494 5.99859 14.25 6H12.25ZM5.75 10C5.55109 10 5.36034 10.079 5.21969 10.2197C5.07904 10.3603 5.00002 10.5511 5 10.75C5 13.5024 7.19433 16 10 16C12.8057 16 15 13.5024 15 10.75C15 10.5511 14.921 10.3603 14.7803 10.2197C14.6397 10.079 14.4489 10 14.25 10H5.75ZM6.65039 11.5H13.3496C12.9975 13.1259 11.6364 14.5 10 14.5C8.36364 14.5 7.00251 13.1259 6.65039 11.5Z" fill="#9CA3AF"/>
</svg>
