<svg width="12" height="7" viewBox="0 0 12 7" fill="none" xmlns="http://www.w3.org/2000/svg">
<path d="M5.99469 0.874976C5.8971 0.876403 5.80392 0.915814 5.73492 0.984839L0.859922 5.85984C0.823932 5.89439 0.7952 5.93578 0.775406 5.98158C0.755612 6.02738 0.745156 6.07667 0.744648 6.12656C0.744141 6.17645 0.753593 6.22593 0.772452 6.27213C0.79131 6.31832 0.819196 6.36028 0.854475 6.39556C0.889754 6.43084 0.931718 6.45872 0.977909 6.47758C1.0241 6.49644 1.07359 6.50589 1.12348 6.50539C1.17337 6.50488 1.22266 6.49442 1.26845 6.47463C1.31425 6.45483 1.35564 6.4261 1.3902 6.39011L6.00006 1.78025L10.6099 6.39011C10.6445 6.4261 10.6859 6.45483 10.7317 6.47463C10.7775 6.49442 10.8267 6.50488 10.8766 6.50539C10.9265 6.50589 10.976 6.49644 11.0222 6.47758C11.0684 6.45872 11.1104 6.43084 11.1456 6.39556C11.1809 6.36028 11.2088 6.31832 11.2277 6.27213C11.2465 6.22593 11.256 6.17645 11.2555 6.12656C11.255 6.07667 11.2445 6.02738 11.2247 5.98158C11.2049 5.93578 11.1762 5.89439 11.1402 5.85984L6.2652 0.984839C6.22974 0.949371 6.18754 0.921373 6.14107 0.902503C6.09461 0.883632 6.04483 0.874272 5.99469 0.874976Z" fill="#9CA3AF"/>
</svg>
