<svg width="10" height="10" viewBox="0 0 10 10" fill="none" xmlns="http://www.w3.org/2000/svg">
<path d="M9.54028 5.12975C9.80353 4.8665 9.92203 4.49075 9.85753 4.1245C9.79303 3.75825 9.55303 3.44525 9.21553 3.28825L8.73128 3.0625C8.58278 2.9935 8.49253 2.83725 8.50703 2.67375L8.55378 2.142C8.58628 1.77125 8.43578 1.40725 8.15078 1.168C7.86578 0.929 7.48028 0.84425 7.12128 0.93975L6.60528 1.0785C6.44728 1.12025 6.27753 1.05925 6.18353 0.92475L5.87728 0.48725C5.66428 0.18225 5.31453 0 4.94253 0C4.57053 0 4.22078 0.18225 4.00753 0.48675L3.70128 0.92425C3.60728 1.05875 3.43803 1.11975 3.27928 1.078L2.76353 0.93925C2.40403 0.8435 2.01928 0.92825 1.73428 1.1675C1.44928 1.40675 1.29878 1.77075 1.33128 2.1415L1.37803 2.6735C1.39228 2.83675 1.30228 2.993 1.15353 3.0625L0.669275 3.288C0.331775 3.445 0.0917753 3.75775 0.0272753 4.12425C-0.0372247 4.49075 0.0812752 4.8665 0.344525 5.1295L0.722275 5.507C0.838275 5.62275 0.869525 5.8005 0.800275 5.949L0.574275 6.43325C0.417025 6.7705 0.434025 7.16425 0.620275 7.4865C0.806525 7.80875 1.13878 8.0205 1.50953 8.05275L2.04178 8.09925C2.20503 8.1135 2.34303 8.2295 2.38553 8.38775L2.52353 8.9035C2.61978 9.263 2.88578 9.5535 3.23553 9.68075C3.58503 9.808 3.97553 9.75675 4.28103 9.543L4.71828 9.23625C4.85253 9.14275 5.03303 9.14175 5.16728 9.23625L5.60478 9.543C5.79903 9.67925 6.02853 9.7495 6.25978 9.7495C6.39128 9.7495 6.52328 9.72675 6.65003 9.68075C6.99953 9.55325 7.26578 9.26275 7.36203 8.9035L7.50003 8.38775C7.54228 8.22925 7.68053 8.11325 7.84378 8.09925L8.37553 8.05275C8.74628 8.0205 9.07878 7.80875 9.26478 7.4865C9.45078 7.16425 9.46803 6.7705 9.31053 6.433L9.08453 5.949C9.01528 5.8005 9.04653 5.62275 9.16253 5.507L9.54028 5.12975ZM7.01528 4.14025L4.51528 6.64025C4.44203 6.7135 4.34603 6.75 4.25003 6.75C4.15403 6.75 4.05803 6.7135 3.98478 6.64025L2.73478 5.39025C2.58828 5.24375 2.58828 5.0065 2.73478 4.86C2.88128 4.7135 3.11853 4.7135 3.26503 4.86L4.25003 5.84475L6.48478 3.61C6.63128 3.4635 6.86853 3.4635 7.01503 3.61C7.16153 3.7565 7.16153 3.99375 7.01528 4.14025Z" fill="#2D8CFF"/>
</svg>
